HIERARCHY
ROOT Hips
{
  OFFSET 0.000000 95.000000 0.000000
  CHANNELS 6 Xposition Yposition Zposition Zrotation Xrotation Yrotation
  JOINT Spine
  {
    OFFSET 0.000000 10.000000 0.000000
    CHANNELS 3 Zrotation Xrotation Yrotation
    JOINT Spine1
    {
      OFFSET 0.000000 12.000000 0.000000
      CHANNELS 3 Zrotation Xrotation Yrotation
      JOINT Spine2
      {
        OFFSET 0.000000 12.000000 0.000000
        CHANNELS 3 Zrotation Xrotation Yrotation
        JOINT Neck
        {
          OFFSET 0.000000 10.000000 0.000000
          CHANNELS 3 Zrotation Xrotation Yrotation
          JOINT Head
          {
            OFFSET 0.000000 8.000000 0.000000
            CHANNELS 3 Zrotation Xrotation Yrotation
            End Site
            {
              OFFSET 0.000000 10.000000 0.000000
            }
          }
        }
        JOINT LeftShoulder
        {
          OFFSET 6.000000 8.000000 0.000000
          CHANNELS 3 Zrotation Xrotation Yrotation
          JOINT LeftArm
          {
            OFFSET 12.000000 0.000000 0.000000
            CHANNELS 3 Zrotation Xrotation Yrotation
            JOINT LeftForeArm
            {
              OFFSET 24.000000 0.000000 0.000000
              CHANNELS 3 Zrotation Xrotation Yrotation
              JOINT LeftHand
              {
                OFFSET 22.000000 0.000000 0.000000
                CHANNELS 3 Zrotation Xrotation Yrotation
                JOINT LeftHandThumb1
                {
                  OFFSET 1.800000 -1.400000 0.500000
                  CHANNELS 3 Zrotation Xrotation Yrotation
                  JOINT LeftHandThumb2
                  {
                    OFFSET 2.400000 0.000000 0.000000
                    CHANNELS 3 Zrotation Xrotation Yrotation
                    JOINT LeftHandThumb3
                    {
                      OFFSET 1.900000 0.000000 0.000000
                      CHANNELS 3 Zrotation Xrotation Yrotation
                      End Site
                      {
                        OFFSET 1.600000 0.000000 0.000000
                      }
                    }
                  }
                }
                JOINT LeftHandIndex1
                {
                  OFFSET 6.600000 1.200000 0.300000
                  CHANNELS 3 Zrotation Xrotation Yrotation
                  JOINT LeftHandIndex2
                  {
                    OFFSET 2.000000 0.000000 0.000000
                    CHANNELS 3 Zrotation Xrotation Yrotation
                    JOINT LeftHandIndex3
                    {
                      OFFSET 1.200000 0.000000 0.000000
                      CHANNELS 3 Zrotation Xrotation Yrotation
                      End Site
                      {
                        OFFSET 1.000000 0.000000 0.000000
                      }
                    }
                  }
                }
                JOINT LeftHandMiddle1
                {
                  OFFSET 7.200000 0.000000 0.300000
                  CHANNELS 3 Zrotation Xrotation Yrotation
                  JOINT LeftHandMiddle2
                  {
                    OFFSET 3.000000 0.000000 0.000000
                    CHANNELS 3 Zrotation Xrotation Yrotation
                    JOINT LeftHandMiddle3
                    {
                      OFFSET 2.000000 0.000000 0.000000
                      CHANNELS 3 Zrotation Xrotation Yrotation
                      End Site
                      {
                        OFFSET 1.600000 0.000000 0.000000
                      }
                    }
                  }
                }
                JOINT LeftHandRing1
                {
                  OFFSET 7.100000 -1.000000 0.400000
                  CHANNELS 3 Zrotation Xrotation Yrotation
                  JOINT LeftHandRing2
                  {
                    OFFSET 2.600000 0.000000 0.000000
                    CHANNELS 3 Zrotation Xrotation Yrotation
                    JOINT LeftHandRing3
                    {
                      OFFSET 1.600000 0.000000 0.000000
                      CHANNELS 3 Zrotation Xrotation Yrotation
                      End Site
                      {
                        OFFSET 1.300000 0.000000 0.000000
                      }
                    }
                  }
                }
                JOINT LeftHandPinky1
                {
                  OFFSET 6.500000 -2.000000 0.500000
                  CHANNELS 3 Zrotation Xrotation Yrotation
                  JOINT LeftHandPinky2
                  {
                    OFFSET 1.900000 0.000000 0.000000
                    CHANNELS 3 Zrotation Xrotation Yrotation
                    JOINT LeftHandPinky3
                    {
                      OFFSET 1.400000 0.000000 0.000000
                      CHANNELS 3 Zrotation Xrotation Yrotation
                      End Site
                      {
                        OFFSET 1.300000 0.000000 0.000000
                      }
                    }
                  }
                }
              }
            }
          }
        }
        JOINT RightShoulder
        {
          OFFSET -6.000000 8.000000 0.000000
          CHANNELS 3 Zrotation Xrotation Yrotation
          JOINT RightArm
          {
            OFFSET -12.000000 0.000000 0.000000
            CHANNELS 3 Zrotation Xrotation Yrotation
            JOINT RightForeArm
            {
              OFFSET -24.000000 0.000000 0.000000
              CHANNELS 3 Zrotation Xrotation Yrotation
              JOINT RightHand
              {
                OFFSET -22.000000 0.000000 0.000000
                CHANNELS 3 Zrotation Xrotation Yrotation
                JOINT RightHandThumb1
                {
                  OFFSET -1.800000 -1.400000 0.500000
                  CHANNELS 3 Zrotation Xrotation Yrotation
                  JOINT RightHandThumb2
                  {
                    OFFSET -2.400000 0.000000 0.000000
                    CHANNELS 3 Zrotation Xrotation Yrotation
                    JOINT RightHandThumb3
                    {
                      OFFSET -1.900000 0.000000 0.000000
                      CHANNELS 3 Zrotation Xrotation Yrotation
                      End Site
                      {
                        OFFSET -1.600000 0.000000 0.000000
                      }
                    }
                  }
                }
                JOINT RightHandIndex1
                {
                  OFFSET -6.600000 1.200000 0.300000
                  CHANNELS 3 Zrotation Xrotation Yrotation
                  JOINT RightHandIndex2
                  {
                    OFFSET -2.000000 0.000000 0.000000
                    CHANNELS 3 Zrotation Xrotation Yrotation
                    JOINT RightHandIndex3
                    {
                      OFFSET -1.200000 0.000000 0.000000
                      CHANNELS 3 Zrotation Xrotation Yrotation
                      End Site
                      {
                        OFFSET -1.000000 0.000000 0.000000
                      }
                    }
                  }
                }
                JOINT RightHandMiddle1
                {
                  OFFSET -7.200000 0.000000 0.300000
                  CHANNELS 3 Zrotation Xrotation Yrotation
                  JOINT RightHandMiddle2
                  {
                    OFFSET -3.000000 0.000000 0.000000
                    CHANNELS 3 Zrotation Xrotation Yrotation
                    JOINT RightHandMiddle3
                    {
                      OFFSET -2.000000 0.000000 0.000000
                      CHANNELS 3 Zrotation Xrotation Yrotation
                      End Site
                      {
                        OFFSET -1.600000 0.000000 0.000000
                      }
                    }
                  }
                }
                JOINT RightHandRing1
                {
                  OFFSET -7.100000 -1.000000 0.400000
                  CHANNELS 3 Zrotation Xrotation Yrotation
                  JOINT RightHandRing2
                  {
                    OFFSET -2.600000 0.000000 0.000000
                    CHANNELS 3 Zrotation Xrotation Yrotation
                    JOINT RightHandRing3
                    {
                      OFFSET -1.600000 0.000000 0.000000
                      CHANNELS 3 Zrotation Xrotation Yrotation
                      End Site
                      {
                        OFFSET -1.300000 0.000000 0.000000
                      }
                    }
                  }
                }
                JOINT RightHandPinky1
                {
                  OFFSET -6.500000 -2.000000 0.500000
                  CHANNELS 3 Zrotation Xrotation Yrotation
                  JOINT RightHandPinky2
                  {
                    OFFSET -1.900000 0.000000 0.000000
                    CHANNELS 3 Zrotation Xrotation Yrotation
                    JOINT RightHandPinky3
                    {
                      OFFSET -1.400000 0.000000 0.000000
                      CHANNELS 3 Zrotation Xrotation Yrotation
                      End Site
                      {
                        OFFSET -1.300000 0.000000 0.000000
                      }
                    }
                  }
                }
              }
            }
          }
        }
      }
    }
  }
  JOINT LeftUpLeg
  {
    OFFSET 10.000000 -5.000000 0.000000
    CHANNELS 3 Zrotation Xrotation Yrotation
    JOINT LeftLeg
    {
      OFFSET 0.000000 -42.000000 0.000000
      CHANNELS 3 Zrotation Xrotation Yrotation
      JOINT LeftFoot
      {
        OFFSET 0.000000 -42.000000 4.000000
        CHANNELS 3 Zrotation Xrotation Yrotation
        End Site
        {
          OFFSET 0.000000 0.000000 12.000000
        }
      }
    }
  }
  JOINT RightUpLeg
  {
    OFFSET -10.000000 -5.000000 0.000000
    CHANNELS 3 Zrotation Xrotation Yrotation
    JOINT RightLeg
    {
      OFFSET 0.000000 -42.000000 0.000000
      CHANNELS 3 Zrotation Xrotation Yrotation
      JOINT RightFoot
      {
        OFFSET 0.000000 -42.000000 4.000000
        CHANNELS 3 Zrotation Xrotation Yrotation
        End Site
        {
          OFFSET 0.000000 0.000000 12.000000
        }
      }
    }
  }
}
MOTION
Frames: 4
Frame Time: 0.040000
0.0606 0.2280 -0.1164 -4.8272 9.6836 14.7479 3.3617 0.8915 -14.8360 0.0000 0.0000 0.0000 0.0000 0.0000 0.0000 15.1572 51.3070 9.9823 0.0000 0.0000 0.0000 0.0000 0.0000 0.0000 -79.0659 -0.3172 10.9673 -5.1627 5.8665 -6.4344 -169.5677 6.8947 176.7059 47.2902 -8.4813 7.9604 -48.7455 -4.6228 -10.1825 1.7692 0.0371 -2.3995 -6.9352 0.1145 1.6492 19.7129 0.9885 -5.6848 2.4552 0.0267 -1.2455 6.5939 -0.2942 0.3321 28.7263 2.9773 -11.5899 18.4332 0.7357 -4.5318 14.3900 -0.8031 -0.1662 30.2455 4.1479 -15.2644 29.6678 1.8675 -7.0432 21.5936 -1.6546 -0.6114 14.4292 2.2302 -17.4828 40.7223 4.7423 -12.7328 0.0000 0.0000 0.0000 61.1478 -38.1298 46.3206 206.4363 31.8230 295.7058 -22.4367 -13.2615 324.3714 -46.5313 -10.9901 3.1896 37.5692 -6.5342 19.0544 -2.2637 0.0457 2.3107 3.7206 3.5209 22.5095 -22.5916 9.3828 44.6702 -9.1939 1.0224 12.6638 -2.7929 0.1266 9.9597 -3.0975 0.5784 21.1483 -3.2238 0.1333 4.7331 -4.0403 -0.3372 1.0546 -355.6500 -0.6602 17.2508 -3.3192 0.1438 4.9616 -10.4422 0.2438 -4.8757 12.4328 -1.2288 11.2458 -2.6354 0.0898 3.9009 8.0367 -8.4492 -15.7154 0.0000 0.0000 0.0000 0.0000 0.0000 0.0000 17.0018 -0.7072 -14.0810 0.0000 0.0000 0.0000 0.0000 0.0000 0.0000
0.0696 0.2295 -0.1023 -5.2149 10.4871 14.5958 3.6920 0.9695 -14.6928 0.0000 0.0000 0.0000 0.0000 0.0000 0.0000 15.1825 50.4083 10.0026 0.0000 0.0000 0.0000 0.0000 0.0000 0.0000 -79.6880 -1.2805 10.6156 -3.7307 5.7194 -6.2941 -169.4303 10.0328 178.8673 47.0361 -8.2723 8.5449 -47.3308 -4.4949 -10.2345 0.4768 0.0114 -2.7468 -5.8282 0.0182 1.8850 20.9913 1.1452 -6.1757 1.0111 0.0079 -0.8957 8.5846 -0.3796 0.2831 27.2506 2.8122 -11.5648 15.8466 0.5798 -4.1639 15.8758 -0.8834 -0.6105 27.6376 3.9407 -15.9239 28.1574 1.7226 -6.8609 21.7977 -1.7418 -1.2972 10.5223 1.6421 -17.6917 32.8547 3.6308 -12.2716 0.0000 0.0000 0.0000 60.8472 -38.9086 46.5868 208.9409 33.0977 296.6366 -23.9823 17.9009 312.2641 -56.8827 -12.0046 -0.5613 38.5987 -4.4797 12.7461 -1.8390 -0.0025 -0.1578 -14.6393 4.8767 17.4891 -33.0523 6.8314 22.7477 -8.1308 0.1495 2.1035 -0.2662 -0.0081 1.2645 -7.2873 0.9120 14.2489 0.8786 -0.0033 0.4279 3.5960 0.7066 -2.9012 -358.4944 -0.1604 12.1642 -0.5578 0.0024 0.4923 -0.6015 1.5544 -5.2791 11.3746 -0.7152 7.1721 -2.1229 0.0060 0.3242 8.3092 -11.5341 -16.0680 0.0000 0.0000 0.0000 0.0000 0.0000 0.0000 17.2935 -1.2637 -13.9975 0.0000 0.0000 0.0000 0.0000 0.0000 0.0000
0.0707 0.2325 -0.1007 -5.4015 10.3540 13.9044 3.5048 0.8775 -14.0396 0.0000 0.0000 0.0000 0.0000 0.0000 0.0000 15.4253 50.6683 10.2763 0.0000 0.0000 0.0000 0.0000 0.0000 0.0000 -79.5615 -1.2329 10.5029 -3.5942 5.9078 -6.5272 -169.7814 8.6590 178.7167 46.3190 -8.1797 8.1534 -47.7712 -4.5132 -10.1701 2.1514 0.0606 -3.2249 -6.9958 0.1733 1.1865 20.2771 1.3350 -7.4556 0.9491 0.0106 -1.2850 7.0369 -0.2721 -0.3490 25.5893 3.2622 -14.2941 16.0846 0.9494 -6.7114 14.3569 -0.8215 -1.5834 25.5289 4.2495 -18.6018 26.1543 2.0998 -9.0220 20.7909 -1.8429 -2.6823 9.0884 1.6221 -20.1985 33.7969 5.0959 -16.6666 0.0000 0.0000 0.0000 62.1690 -38.3615 44.7162 209.3833 34.3317 297.8100 -35.0162 30.5509 300.1471 -59.4778 -11.9919 -4.5142 43.6236 -4.2881 10.6884 8.5957 0.1310 -1.7427 -9.7823 0.1292 2.1427 -24.1285 2.4754 11.5444 -4.2764 0.1395 3.7340 -0.3685 -0.0128 0.7909 -6.3262 0.9634 17.3008 -4.7632 0.1282 3.0809 -3.7708 -0.5090 2.7753 -355.1030 -0.6252 14.5421 -3.9395 0.0927 2.6960 2.1111 -0.7955 2.9276 15.0892 -1.2961 9.7629 -7.4901 0.0557 0.8513 7.9879 -13.4348 -15.6594 0.0000 0.0000 0.0000 0.0000 0.0000 0.0000 16.8304 -1.2087 -13.3499 0.0000 0.0000 0.0000 0.0000 0.0000 0.0000
0.0666 0.2464 -0.1059 -5.4878 10.7844 13.4846 3.4810 0.8457 -13.6388 0.0000 0.0000 0.0000 0.0000 0.0000 0.0000 16.1628 50.2757 10.7093 0.0000 0.0000 0.0000 0.0000 0.0000 0.0000 -79.5697 -1.8399 10.2697 -3.3188 5.7565 -6.3627 -170.2996 10.3438 177.9589 48.0634 -8.8522 7.2304 -48.4304 -4.4355 -9.8430 -0.1787 -0.0034 -2.1958 -5.8594 0.1252 1.0736 20.6237 1.2182 -6.6880 1.0664 0.0124 -1.3349 8.4148 -0.2851 -0.8976 28.6177 3.5173 -13.7283 19.3426 1.0289 -6.0319 15.4828 -0.8702 -2.0758 27.7270 4.5557 -18.3113 30.8017 2.3055 -8.3557 22.0360 -1.9276 -2.9270 11.6264 2.0583 -20.0133 34.2662 4.4023 -14.2142 0.0000 0.0000 0.0000 61.1372 -38.0429 44.3535 210.2337 36.2568 298.8569 -32.0633 35.2245 299.6636 -63.1575 -12.6713 -5.7439 46.5064 -4.2646 9.9045 0.3900 0.0017 -0.4988 -14.9724 1.0651 5.5077 -35.2037 4.0618 12.7555 -6.8195 -0.0263 -0.4416 0.7274 0.0324 -0.3220 -8.5180 1.0018 13.3915 1.0587 -0.0180 1.9525 2.4902 -0.0717 1.3028 -357.2964 -0.2851 12.0366 -1.0080 0.0066 0.7450 4.2861 -0.5394 2.5031 14.9719 -0.8902 6.7667 -3.8372 -0.0311 -0.9292 7.7676 -13.5789 -15.2634 0.0000 0.0000 0.0000 0.0000 0.0000 0.0000 16.2290 -1.6765 -13.0350 0.0000 0.0000 0.0000 0.0000 0.0000 0.0000
